<?xml version="1.0" encoding="utf-8"?>
<!-- Generator: Adobe Illustrator 21.0.2, SVG Export Plug-In . SVG Version: 6.00 Build 0)  -->
<svg version="1.1" id="Layer_1" xmlns="http://www.w3.org/2000/svg" xmlns:xlink="http://www.w3.org/1999/xlink" x="0px" y="0px"
	 viewBox="0 0 642 386.3" style="enable-background:new 0 0 642 386.3;" xml:space="preserve">
<style type="text/css">
	.st0{fill:#1FB55C;}
	.st1{fill:#126087;}
</style>
<g>
	<path class="st0" d="M98.8,216.2c-0.8-17.7,3-34.2,13.6-48.8c8.1-11.2,18.2-20,32.1-23c11.4-2.4,23-2.9,34,1
		c19.4,6.9,34.9,19.4,45.4,36.8c11.6,19.2,13.3,39.9,3.8,60.9c-8.8,19.4-21.9,35.2-39.2,47.3c-17.2,12-36.3,19.7-57.6,20.7
		c-3.7,0.2-7.4,1.1-11.1,1.3c-6,0.3-7.9-1.1-8.9-7c-2.5-15-4.8-29.9-7.2-44.9c-1.6-9.9-3.5-19.7-4.8-29.7
		C98.3,226.1,98.8,221.1,98.8,216.2z"/>
	<path class="st1" d="M231.7,151.9c-10-7.3-18.9-14.1-28.1-20.4c-20.7-14.2-43.8-21.4-68.9-20.8c-22.8,0.6-43.3,8.8-60.6,23.6
		c-18.9,16-32.2,35.9-38.2,60.2c-4,16.2-6.2,32.6-3.5,49.4c1.2,7.6,1.4,15.4,2.2,23.1c0.3,2.8,0.7,5.6,1.1,8.4
		c-26.2-20-42.2-68.9-31.5-110.6c13.9-54.3,57-86.5,107-90.5C167,69.8,213.8,104.6,231.7,151.9z"/>
	<path class="st1" d="M528.2,152.7c0.4,16.8-6.1,31.3-16.1,43.9c-8.9,11.3-21.1,18.3-35.6,21.1c-36.6,7.2-66.5-20.6-72.3-51.8
		c-4.6-25.3,2.3-46.6,20.4-64.3c9.5-9.2,21.1-14.5,34.5-15.8c11.5-1.1,22.2,0.3,32.3,5.7c17.6,9.2,28.6,23.7,33.8,42.6
		C527.1,140.1,527.3,146.5,528.2,152.7z M501.5,152.5c0.3-9.2-2.1-17.7-6.6-25.6c-12.9-22.7-40-23.3-54.3-6.7
		c-17,19.6-15.5,53.2,6.7,69.9c8.7,6.5,25.1,7.2,34.4,1.4C495.9,182.3,500.4,168.2,501.5,152.5z"/>
	<path class="st1" d="M537.2,201c3.5-6.9,7-13.8,10.5-20.6c7.3,3.6,14.1,7.1,21,10.4c9.7,4.6,20,4.9,30.4,4.2c1.7-0.1,3.4-0.7,5-1.2
		c10.1-3.4,12.5-14.2,4-20.5c-4.9-3.6-11.2-5.5-17.1-7.6c-10.2-3.7-20.9-6.3-30.9-10.6c-11.8-5.1-18.2-14.5-17.5-28
		c0.3-6.3,0.4-12.4,3.4-18.4c7.3-14.7,19.9-20.7,35.2-22.7c16.7-2.2,32.5,1,47.2,9.1c2.5,1.4,4.8,2.9,7.9,4.8
		c-3.8,7.2-7.4,13.9-11,20.7c-5.8-3-11-6.1-16.5-8.4c-9.5-3.9-19.3-5.5-29.4-2.4c-6.5,2-10,6.1-10.5,12.1c-0.4,4.9,2.8,9.9,9,12.3
		c7.2,2.7,14.7,4.8,22.1,7c9.1,2.8,18.3,5,26.4,10.3c11.9,7.8,16,19.5,14.4,32.8c-1.9,15.9-10.8,26.8-26.6,31.6
		c-11.8,3.6-23.6,3.9-35.8,2.2c-13-1.8-25-6.1-36.4-12.5c-1.2-0.7-2.4-1.5-3.6-2.4C538.1,203.2,538,202.5,537.2,201z"/>
	<path class="st1" d="M296.4,86.4c2.5-0.1,4.4-0.3,6.4-0.3c15.5,0,31.1-0.1,46.6,0c22.8,0.2,38,13.8,43.7,36.3
		c3.8,15.1-6.7,38.7-19.2,45.7c-7.3,4-14.8,6-22.9,6.2c-7.2,0.2-14.4,0-21.6,0.1c-2.2,0-4.5,0.3-7.6,0.4c0,7.2,0,14,0,20.9
		c0,6.9,0,13.8,0,21.7c-8.5,0.8-16.7,0.2-24.7,0.3C295.3,211.1,294.8,100.2,296.4,86.4z M322.7,149.9c2.2,0.2,4.4,0.4,6.7,0.4
		c8.3,0,16.7,0.1,25-0.2c3.9-0.1,6.8-2.4,9-5.8c3.5-5.1,3.5-10.8,3.3-16.6c-0.3-11.1-7.2-18.3-18.2-18.9c-6.9-0.3-13.8-0.1-20.7,0
		c-1.9,0-3.8,0.5-6,0.8c0,12.8,0,25.2,0,37.5C321.8,147.9,322.3,148.7,322.7,149.9z"/>
	<g>
		<path class="st0" d="M307,300.9c-3.6-1.2-6.8-2.8-9.5-5l4-6c2.4,1.9,5.2,3.3,8.3,4.2c3.1,0.9,6,1.4,8.7,1.4c4.4,0,7.7-0.8,10-2.4
			c2.3-1.6,3.4-4,3.4-7.2c0-1.9-0.4-3.4-1.2-4.7c-0.8-1.2-2.2-2.3-4-3.3c-1.9-1-4.5-2.1-8-3.3l-1.6-0.5c-3.8-1.3-6.9-2.7-9.3-4
			c-2.4-1.3-4.3-3-5.8-5.2c-1.5-2.1-2.2-4.8-2.2-8c0-3.4,0.9-6.3,2.8-8.6c1.9-2.3,4.3-4.1,7.4-5.3c3-1.2,6.3-1.7,9.8-1.7
			c3.7,0,7.1,0.5,10.4,1.4c3.3,0.9,6.4,2.4,9.5,4.5l-3.8,6c-2.7-1.7-5.3-2.9-7.8-3.7c-2.5-0.8-5.3-1.1-8.4-1.1c-3.2,0-5.9,0.7-8,2
			c-2.1,1.3-3.2,3.4-3.2,6.2c0,1.5,0.4,2.7,1.1,3.8c0.7,1.1,1.9,2.1,3.7,3.1c1.7,1,4.2,2,7.3,3.1l1.6,0.5c4.1,1.4,7.3,2.7,9.8,4
			c2.4,1.2,4.5,3,6.3,5.4c1.8,2.3,2.6,5.4,2.6,9.1c0,3.7-0.9,6.8-2.6,9.4c-1.8,2.5-4.3,4.4-7.6,5.8c-3.3,1.3-7.2,2-11.7,2
			C314.5,302.7,310.6,302.1,307,300.9z"/>
		<path class="st0" d="M356.5,299.9c-2.9-1.9-5-4.4-6.4-7.6c-1.4-3.2-2.1-6.8-2.1-10.8c0-4.9,0.9-8.9,2.7-12
			c1.8-3.1,4.3-5.4,7.4-6.9c3.1-1.4,6.6-2.1,10.6-2.1c4.3,0,7.8,0.9,10.7,2.8c2.9,1.9,5,4.4,6.4,7.5c1.4,3.2,2.1,6.8,2.1,10.8
			c0,4.9-0.9,9-2.7,12.1c-1.8,3.1-4.3,5.4-7.4,6.9c-3.1,1.4-6.6,2.1-10.6,2.1C362.9,302.7,359.3,301.7,356.5,299.9z M379.7,281.5
			c0-4.4-1-8-2.9-10.6c-1.9-2.6-4.8-4-8.6-4c-4.3,0-7.3,1.3-9.2,3.9c-1.9,2.6-2.8,6.2-2.8,10.7c0,4.5,1,8.1,2.9,10.8
			c1.9,2.7,4.9,4,8.8,4C375.8,296.3,379.7,291.3,379.7,281.5z"/>
		<path class="st0" d="M397.5,301.6v-62.8l7.9-0.9v63.8H397.5z"/>
		<path class="st0" d="M452,260.6v40.9h-7l-0.5-3c-4.7,2.7-9.4,4.1-14.2,4.1c-3.7,0-6.7-1.1-9.1-3.2c-2.3-2.1-3.5-5.3-3.5-9.5v-28.4
			l7.9-0.9v27c0,2,0.2,3.6,0.7,4.8c0.5,1.2,1.3,2,2.4,2.6c1.1,0.5,2.6,0.8,4.6,0.8c2.9,0,6.6-1.1,11-3.4v-30.9L452,260.6z"/>
		<path class="st0" d="M490.1,300.1c-3.2,1.7-6.5,2.6-10,2.6c-3.8,0-6.8-1.1-9-3.2c-2.2-2.2-3.3-5.4-3.3-9.7v-21.9h-8v-6.2h8v-9
			l7.9-1.3v10.3h13.5l-0.8,6.2h-12.7v20.6c0,5.1,1.9,7.7,5.7,7.7c1.1,0,2.2-0.1,3.2-0.4c1-0.2,2.2-0.6,3.4-1.2L490.1,300.1z"/>
		<path class="st0" d="M499,252.6c-0.9-0.5-1.5-1.2-2.1-2.1c-0.5-0.9-0.8-1.8-0.8-2.7c0-1,0.3-2,0.8-2.8c0.5-0.9,1.2-1.5,2.1-2.1
			c0.9-0.5,1.8-0.8,2.7-0.8c1,0,2,0.3,2.8,0.8c0.9,0.5,1.5,1.2,2.1,2.1c0.5,0.9,0.8,1.8,0.8,2.8c0,1-0.3,1.9-0.8,2.7
			c-0.5,0.9-1.2,1.5-2.1,2.1c-0.9,0.5-1.8,0.8-2.8,0.8C500.7,253.4,499.8,253.2,499,252.6z M497.9,301.6v-40l7.9-0.9v40.9H497.9z"/>
		<path class="st0" d="M523.8,299.9c-2.9-1.9-5-4.4-6.4-7.6c-1.4-3.2-2.1-6.8-2.1-10.8c0-4.9,0.9-8.9,2.7-12
			c1.8-3.1,4.3-5.4,7.4-6.9c3.1-1.4,6.6-2.1,10.6-2.1c4.3,0,7.8,0.9,10.7,2.8c2.9,1.9,5,4.4,6.4,7.5c1.4,3.2,2.1,6.8,2.1,10.8
			c0,4.9-0.9,9-2.7,12.1c-1.8,3.1-4.3,5.4-7.4,6.9c-3.1,1.4-6.6,2.1-10.6,2.1C530.2,302.7,526.7,301.7,523.8,299.9z M547,281.5
			c0-4.4-1-8-2.9-10.6c-1.9-2.6-4.8-4-8.6-4c-4.3,0-7.3,1.3-9.2,3.9c-1.9,2.6-2.8,6.2-2.8,10.7c0,4.5,1,8.1,2.9,10.8
			c1.9,2.7,4.9,4,8.8,4C543.1,296.3,547,291.3,547,281.5z"/>
		<path class="st0" d="M599.5,273.2v28.4h-7.9v-25.5c0-2.3-0.2-4-0.7-5.3c-0.5-1.2-1.2-2.1-2.3-2.7c-1.1-0.5-2.5-0.8-4.3-0.8
			s-3.8,0.3-5.8,0.8c-2.1,0.5-4,1.2-5.8,2.1v31.4h-7.9v-40l7.9-0.9v3.8c5.1-2.7,10-4,14.6-4C595.5,260.5,599.5,264.7,599.5,273.2z"
			/>
		<path class="st0" d="M615.3,301.3c-2.9-0.9-5.5-2.2-7.9-4.1l3.5-5.6c4.4,3.2,9.1,4.8,13.9,4.8c2.7,0,4.8-0.5,6.3-1.4
			c1.5-0.9,2.2-2.3,2.2-4.2c0-1.5-0.7-2.7-2-3.8c-1.3-1.1-3.6-2-6.9-2.9l-2.8-0.7c-4.3-1.1-7.4-2.5-9.4-4.3c-2-1.8-3-4.2-3-7.2
			c0-2.3,0.6-4.2,1.9-6c1.3-1.7,3.1-3.1,5.3-4.1c2.3-1,4.9-1.5,7.7-1.5c2.7,0,5.4,0.3,7.9,1c2.5,0.6,5.1,1.7,7.7,3.2l-3.2,5.6
			c-2.5-1.3-4.7-2.3-6.5-2.8c-1.8-0.5-3.8-0.8-5.8-0.8c-2.2,0-3.9,0.4-5.2,1.3c-1.2,0.9-1.9,2.1-1.9,3.5c0,1.3,0.5,2.3,1.5,3
			c1,0.7,2.8,1.4,5.3,2.1l2.8,0.7c3.5,0.9,6.3,1.9,8.4,3.1c2.1,1.2,3.6,2.5,4.6,4.2c1,1.6,1.5,3.5,1.5,5.8c0,2.4-0.6,4.6-1.9,6.4
			c-1.2,1.9-3.1,3.3-5.5,4.3c-2.4,1-5.4,1.6-8.9,1.6C621.3,302.7,618.1,302.2,615.3,301.3z"/>
	</g>
</g>
</svg>
